<svg width="319" height="520" viewBox="0 0 319 520" fill="none" xmlns="http://www.w3.org/2000/svg">
<path d="M217.098 88.9467C215.098 85.8933 211.598 85 211.598 85L213.598 96.84L215.598 122C215.598 122 217.598 119.5 218.598 115.587C219.598 111.673 219.098 98 219.098 98C219.098 98 219.098 92 217.098 88.9467Z" fill="#5B3623"/>
<path d="M215.598 122C215.598 122 216.098 123 212.598 132C209.098 141 209.598 150 197.098 166.5C191.265 174.2 241.704 217.452 233.098 229.5C223.262 243.27 103.565 228.967 92.0979 229.5C70.5979 230.5 118.598 171.5 109.098 159C99.5979 146.5 92.0979 112 92.0979 112C88.0979 109 88.5979 83.5 88.5979 83.5L101.098 33.5L116.598 22L194.598 18L212.098 85.5L213.598 94L215.598 122Z" fill="#664637"/>
<path d="M78.6745 87.6C81.2182 82.9333 83.5979 82.5 83.5979 82.5L92.9196 84.3333C92.9196 84.3333 94.1242 98.1333 92.5979 100C91.0717 101.867 92.9196 111.5 92.9196 111.5C92.9196 111.5 95.3816 119.861 92.9196 122C90.7937 123.847 82.4864 123 81.5979 120.5C80.7095 118 76.6395 103 76.6395 103C76.6395 103 76.1307 92.2667 78.6745 87.6Z" fill="#5D3323"/>
<path d="M106.098 66.5C106.098 77 92.5979 100 92.5979 100C92.5979 100 92.5979 93 91.0979 88.5C89.5979 84 83.5979 83 83.5979 82.5C83.5979 82 84.0979 63 87.0979 49.5C90.0979 36 97.0979 27 97.0979 27C97.0979 27 105.598 16.5 113.098 11C120.598 5.5 125.098 4 130.098 2.5C135.098 1 140.098 0 152.098 0C164.098 0 178.598 3 183.598 6C188.598 9 198.598 19.5 201.598 27C204.598 34.5 210.598 56 210.598 56L211.598 65V84C211.598 84 203.098 75 203.098 66.5C203.098 58 198.598 47.5 198.598 47.5C198.598 47.5 199.237 51 192.237 34.5C185.237 18 166.598 27 166.598 27L157.598 34.5C157.598 34.5 148.598 36 143.598 34.5C138.598 33 135.598 30 135.598 30C135.598 30 130.098 27.5 124.598 28C119.098 28.5 113.098 33 113.098 33C113.098 33 106.098 40.5 106.098 44.5V66.5Z" fill="#201E12"/>
<path d="M252.598 520H318.598C318.598 520 306.598 482 304.598 469.419C302.598 456.839 304.598 381.677 304.598 381.677L272.098 360L252.598 520Z" fill="#694839"/>
<path d="M9.59793 295.5V274.5C9.59793 274.5 13.5979 228.5 42.0979 207C49.2751 201.586 72.8281 185.374 86.0979 185C95.1031 184.746 107.239 191.298 118.621 196.532L135.598 202.552C162.554 206.882 196.098 213.5 196.098 213.5C196.098 213.5 208.098 203.5 218.598 198C228.666 192.726 267.518 206.095 271.11 220.351C271.102 220.122 271.098 220 271.098 220L271.178 220.643C271.291 221.158 271.356 221.674 271.373 222.19L292.098 387.5L289.598 453V520H33.5979L89.5979 482L86.0979 440L77.0979 403L21.5979 381L16.5979 325L9.59793 295.5Z" fill="url(#paint0_linear_202_2)"/>
<path d="M309.098 381C292.598 385 292.098 387.5 292.098 387.5L275.598 271L272.098 242.5C278.404 245.837 253.223 210.506 268.598 213.5C283.973 216.494 325.598 377 309.098 381Z" fill="#67644E"/>
<path d="M112.432 421.236V391.655L65.9497 335L11.5979 370C11.5979 370 26.0979 384 26.0979 389.5C26.0979 395 24.0979 433.5 26.0979 443.5C28.0979 453.5 33.5979 462 33.5979 470V519.5H108.282V491.427C108.282 491.427 144.598 518.421 133.598 503.46C122.598 488.5 112.432 421.236 112.432 421.236Z" fill="url(#paint1_linear_202_2)"/>
<path d="M5.59793 337.5C5.09793 343 11.5979 370 11.5979 370L49.0979 383.5C49.0979 383.5 129.598 387 122.098 383.5C114.598 380 92.5979 319 92.5979 319C92.5979 319 79.0979 212.5 54.0979 204C29.0979 195.5 1.09793 277.5 0.0979265 292C-0.902074 306.5 6.09793 332 5.59793 337.5Z" fill="#5F5B43"/>
<path fill-rule="evenodd" clip-rule="evenodd" d="M147.061 378.964L146.629 374.945L147.518 374.849C147.806 375.945 148.237 376.773 148.813 377.335C149.386 377.889 150.051 378.125 150.807 378.043C151.358 377.984 151.789 377.724 152.1 377.263C152.416 376.793 152.539 376.236 152.469 375.59C152.372 374.685 151.536 373.742 149.961 372.763C149.538 372.493 149.214 372.284 148.985 372.135C147.872 371.399 147.094 370.705 146.653 370.054C146.216 369.396 145.945 368.587 145.842 367.63C145.691 366.22 145.935 365.07 146.578 364.182C147.22 363.295 148.175 362.783 149.446 362.647C150.048 362.582 150.639 362.642 151.215 362.828C151.792 363.007 152.377 363.319 152.972 363.765L153.316 366.962L152.483 367.052C152.206 366.059 151.792 365.294 151.24 364.751C150.688 364.203 150.086 363.964 149.437 364.034C148.923 364.089 148.523 364.32 148.238 364.725C147.958 365.131 147.849 365.624 147.911 366.203C148.007 367.093 148.853 368.005 150.449 368.937C150.472 368.95 150.491 368.963 150.509 368.976C150.589 369.02 150.71 369.09 150.874 369.184C151.773 369.696 152.445 370.161 152.894 370.577C153.365 371.015 153.753 371.534 154.038 372.11C154.328 372.686 154.509 373.302 154.579 373.956C154.746 375.507 154.512 376.787 153.878 377.793C153.248 378.8 152.312 379.37 151.07 379.503C150.54 379.56 149.942 379.542 149.273 379.45C148.525 379.344 147.785 379.182 147.061 378.964ZM162.321 374.62C162.366 375.035 162.409 375.343 162.453 375.54C162.495 375.738 162.549 375.89 162.614 375.996C162.752 376.244 162.953 376.418 163.219 376.517C163.489 376.615 163.821 376.643 164.214 376.601L164.308 376.591L164.439 377.804L158.121 378.484L157.991 377.27L158.093 377.259C158.487 377.217 158.802 377.12 159.041 376.967C159.279 376.813 159.439 376.601 159.521 376.329C159.561 376.212 159.582 376.052 159.581 375.849C159.586 375.646 159.566 375.337 159.522 374.921L158.304 363.607L157.186 363.728C156.546 363.797 156.07 364.07 155.755 364.547C155.445 365.017 155.227 365.802 155.101 366.904L154.212 367L154.079 362.587L165.118 361.399L165.848 365.748L164.982 365.841C164.69 364.798 164.328 364.079 163.898 363.682C163.472 363.277 162.89 363.115 162.15 363.194L161.104 363.307L162.321 374.62ZM169.136 368.694C169.391 371.062 169.825 372.862 170.441 374.095C171.061 375.32 171.813 375.885 172.701 375.789C173.608 375.692 174.227 375.077 174.555 373.945C174.889 372.813 174.938 371.148 174.702 368.95C174.446 366.576 174.011 364.778 173.398 363.56C172.789 362.341 172.042 361.78 171.156 361.875C170.259 361.972 169.639 362.598 169.296 363.754C168.958 364.902 168.905 366.548 169.136 368.694ZM172.705 377.241C171.897 377.334 171.079 377.195 170.347 376.842C169.603 376.486 168.902 375.908 168.242 375.108C167.686 374.425 167.232 373.617 166.883 372.687C166.537 371.748 166.303 370.707 166.18 369.564C166.06 368.443 166.07 367.379 166.211 366.373C166.358 365.366 166.632 364.447 167.036 363.615C167.492 362.673 168.067 361.931 168.762 361.39C169.441 360.85 170.262 360.516 171.126 360.427C171.882 360.341 172.647 360.457 173.343 360.762C174.048 361.062 174.706 361.547 175.314 362.217C175.952 362.922 176.467 363.764 176.859 364.743C177.255 365.714 177.518 366.805 177.649 368.015C177.765 369.098 177.761 370.139 177.634 371.136C177.512 372.126 177.277 372.999 176.929 373.758C176.454 374.815 175.864 375.637 175.158 376.223C174.46 376.798 173.606 377.153 172.705 377.241ZM178.439 374.957C178.981 374.823 179.334 374.576 179.497 374.213C179.659 373.85 179.679 373.097 179.556 371.953L178.547 362.578C178.236 362.153 177.962 361.856 177.727 361.686C177.49 361.508 177.257 361.432 177.026 361.457L176.987 361.461L176.844 360.137L180.007 359.796C180.158 359.78 180.269 359.794 180.338 359.839C180.407 359.884 180.505 359.995 180.636 360.168L187.571 369.368L186.854 362.709C186.779 362.012 186.609 361.497 186.345 361.164C186.087 360.831 185.697 360.637 185.176 360.581L185.034 359.256L188.928 358.837L189.07 360.162C188.564 360.336 188.225 360.598 188.056 360.946C187.892 361.295 187.851 361.843 187.931 362.593L189.028 372.782C189.072 373.19 189.123 373.613 189.181 374.05C189.243 374.485 189.315 374.952 189.395 375.446L188.238 375.57L179.808 364.46L180.602 371.842C180.717 372.912 180.91 373.62 181.181 373.965C181.456 374.304 181.935 374.485 182.617 374.509L182.759 375.834L178.582 376.284L178.439 374.957ZM191.645 374.877L191.503 373.551C191.998 373.423 192.317 373.235 192.461 372.987C192.609 372.73 192.644 372.25 192.568 371.545L191.518 361.79C191.442 361.086 191.306 360.627 191.108 360.416C190.914 360.196 190.562 360.076 190.05 360.056L189.908 358.731L198.861 357.768L199.219 361.097L198.354 361.19C198.05 360.494 197.677 360.004 197.233 359.723C196.787 359.432 196.232 359.324 195.566 359.395C194.947 359.462 194.557 359.563 194.397 359.701C194.236 359.831 194.184 360.16 194.241 360.686L194.722 365.152L195.926 365.022C196.45 364.966 196.832 364.775 197.073 364.448C197.315 364.122 197.432 363.62 197.429 362.945L198.365 362.845L198.943 368.212L198.015 368.312C197.89 367.642 197.661 367.141 197.328 366.808C196.996 366.476 196.578 366.337 196.074 366.391L194.87 366.521L195.347 370.953C195.423 371.666 195.582 372.154 195.823 372.422C196.069 372.688 196.467 372.792 197.018 372.733C197.748 372.654 198.378 372.346 198.909 371.808C199.44 371.271 199.848 370.528 200.134 369.582L201.039 369.484L200.828 373.888L191.645 374.877ZM214.562 372.41L214.419 371.085C214.92 370.956 215.242 370.768 215.386 370.52C215.532 370.263 215.568 369.783 215.492 369.078L214.443 359.324C214.367 358.619 214.23 358.16 214.033 357.949C213.839 357.729 213.485 357.609 212.967 357.589L212.824 356.265L218.127 355.694L218.269 357.019C217.768 357.148 217.444 357.341 217.297 357.597C217.154 357.846 217.12 358.322 217.196 359.027L218.245 368.781C218.321 369.487 218.457 369.949 218.65 370.169C218.848 370.38 219.205 370.495 219.722 370.515L219.864 371.84L214.562 372.41ZM221.344 370.971L220.911 366.951L221.8 366.856C222.088 367.951 222.518 368.78 223.095 369.341C223.669 369.895 224.333 370.131 225.089 370.05C225.639 369.991 226.071 369.731 226.383 369.269C226.697 368.8 226.82 368.242 226.75 367.596C226.653 366.691 225.818 365.749 224.242 364.769C223.916 364.561 223.591 364.352 223.267 364.141C222.154 363.405 221.376 362.712 220.935 362.061C220.498 361.403 220.228 360.594 220.125 359.636C219.973 358.226 220.217 357.077 220.86 356.189C221.501 355.301 222.458 354.79 223.727 354.653C224.329 354.588 224.921 354.649 225.497 354.835C226.073 355.013 226.659 355.325 227.253 355.772L227.597 358.969L226.764 359.058C226.487 358.066 226.074 357.3 225.522 356.758C224.969 356.209 224.368 355.97 223.718 356.04C223.204 356.096 222.804 356.326 222.519 356.732C222.24 357.138 222.131 357.63 222.194 358.209C222.289 359.1 223.135 360.011 224.732 360.943C224.755 360.956 224.775 360.969 224.791 360.982L225.155 361.19C226.054 361.702 226.727 362.167 227.175 362.584C227.647 363.021 228.035 363.54 228.32 364.116C228.609 364.693 228.79 365.309 228.86 365.963C229.027 367.514 228.794 368.793 228.16 369.8C227.529 370.806 226.595 371.376 225.351 371.51C224.822 371.567 224.223 371.549 223.555 371.456C222.807 371.35 222.068 371.188 221.344 370.971ZM233.39 354.053L233.53 355.356C233.04 355.491 232.724 355.682 232.581 355.931C232.437 356.179 232.405 356.663 232.483 357.383L233.443 366.303C233.57 367.49 233.772 368.235 234.049 368.535C234.329 368.828 234.847 368.933 235.603 368.852C236.547 368.75 237.274 368.428 237.782 367.885C238.291 367.334 238.749 366.392 239.157 365.056L240.047 364.96L239.847 369.69L229.803 370.771L229.66 369.446C230.155 369.317 230.473 369.129 230.618 368.882C230.766 368.625 230.8 368.145 230.724 367.439L229.674 357.685C229.598 356.973 229.464 356.511 229.271 356.299C229.078 356.078 228.723 355.956 228.206 355.929L228.066 354.626L233.39 354.053L233.39 354.053ZM241.307 369.532L241.164 368.207C241.436 368.081 241.643 367.871 241.781 367.578C241.925 367.285 242.045 366.776 242.142 366.052L243.671 354.376C243.682 354.239 243.689 354.141 243.687 354.081C243.691 354.013 243.69 353.958 243.685 353.913C243.668 353.757 243.623 353.604 243.548 353.454C243.462 353.287 243.355 353.132 243.229 352.993L246.116 352.682L250.736 365.374C250.939 365.924 251.147 366.332 251.362 366.602C251.575 366.871 251.81 367.016 252.061 367.034L252.203 368.359L247.208 368.897L247.065 367.571C247.409 367.512 247.653 367.393 247.798 367.212C247.949 367.03 248.007 366.781 247.972 366.46C247.962 366.364 247.938 366.247 247.902 366.107C247.865 365.962 247.811 365.779 247.74 365.561L247.015 363.196L243.498 363.574L243.32 365.834C243.302 366.061 243.293 366.246 243.292 366.389C243.291 366.512 243.296 366.636 243.309 366.759C243.351 367.146 243.463 367.433 243.648 367.623C243.837 367.814 244.09 367.891 244.405 367.857L244.453 367.852L244.595 369.177L241.306 369.531L241.307 369.532ZM243.709 362.121L246.446 361.827L244.468 356.16L243.709 362.121ZM252.978 366.936C253.521 366.802 253.874 366.555 254.036 366.191C254.199 365.828 254.219 365.076 254.096 363.932L253.087 354.556C252.775 354.132 252.502 353.835 252.267 353.665C252.03 353.487 251.797 353.411 251.566 353.436L251.526 353.44L251.384 352.116L254.545 351.775C254.697 351.759 254.808 351.773 254.876 351.818C254.945 351.863 255.043 351.974 255.174 352.147L262.11 361.347L261.394 354.688C261.319 353.991 261.148 353.475 260.884 353.143C260.625 352.81 260.235 352.616 259.716 352.56L259.573 351.235L263.467 350.816L263.609 352.141C263.104 352.315 262.766 352.577 262.595 352.925C262.431 353.274 262.39 353.822 262.471 354.572L263.567 364.761C263.611 365.169 263.661 365.592 263.719 366.029C263.782 366.464 263.854 366.93 263.933 367.425L262.778 367.549L254.347 356.438L255.142 363.821C255.257 364.89 255.449 365.598 255.719 365.944C255.994 366.283 256.473 366.464 257.155 366.488L257.298 367.813L253.121 368.263L252.978 366.936ZM269.78 362.392C269.896 363.468 270.085 364.161 270.346 364.471C270.608 364.781 271.058 364.901 271.698 364.832C272.8 364.713 273.6 364.067 274.1 362.895C274.605 361.722 274.751 360.151 274.539 358.185C274.296 355.921 273.724 354.206 272.824 353.041C271.924 351.877 270.784 351.369 269.404 351.517C269.117 351.548 268.921 351.655 268.818 351.839C268.722 352.015 268.693 352.3 268.736 352.692L269.779 362.392L269.78 362.392ZM266.185 366.855L266.042 365.53C266.537 365.401 266.857 365.213 267 364.966C267.149 364.709 267.183 364.229 267.107 363.523L266.058 353.769C265.982 353.064 265.847 352.606 265.647 352.394C265.454 352.174 265.102 352.055 264.59 352.034L264.447 350.71L269.663 350.148C271.82 349.916 273.599 350.45 275 351.748C276.404 353.047 277.237 354.931 277.503 357.404C277.639 358.665 277.582 359.865 277.334 361.004C277.083 362.134 276.66 363.122 276.062 363.968C275.573 364.659 274.978 365.188 274.275 365.556C273.571 365.918 272.684 366.156 271.614 366.271L266.185 366.855Z" fill="#204824"/>
<defs>
<linearGradient id="paint0_linear_202_2" x1="206.598" y1="451" x2="56.5982" y2="233" gradientUnits="userSpaceOnUse">
<stop stop-color="#959386"/>
<stop offset="1" stop-color="#74736C"/>
</linearGradient>
<linearGradient id="paint1_linear_202_2" x1="71.345" y1="335" x2="71.345" y2="546.578" gradientUnits="userSpaceOnUse">
<stop stop-color="#4D492E"/>
<stop offset="1" stop-color="#959386"/>
</linearGradient>
</defs>
</svg>
