<svg width="702" height="620" viewBox="0 0 702 620" fill="none" xmlns="http://www.w3.org/2000/svg">
<g filter="url(#filter0_d_17_39)">
<path d="M424.098 188.947C422.098 185.893 418.598 185 418.598 185L420.598 196.84L422.598 222C422.598 222 424.598 219.5 425.598 215.587C426.598 211.673 426.098 198 426.098 198C426.098 198 426.098 192 424.098 188.947Z" fill="#5B3623"/>
<path d="M422.598 222C422.598 222 423.098 223 419.598 232C416.098 241 416.598 250 404.098 266.5C398.265 274.2 448.704 317.452 440.098 329.5C430.262 343.27 310.565 328.967 299.098 329.5C277.598 330.5 325.598 271.5 316.098 259C306.598 246.5 299.098 212 299.098 212C295.098 209 295.598 183.5 295.598 183.5L308.098 133.5L323.598 122L401.598 118L419.098 185.5L420.598 194L422.598 222Z" fill="#664637"/>
<path d="M285.674 187.6C288.218 182.933 290.598 182.5 290.598 182.5L299.92 184.333C299.92 184.333 301.124 198.133 299.598 200C298.072 201.867 299.92 211.5 299.92 211.5C299.92 211.5 302.382 219.861 299.92 222C297.794 223.847 289.486 223 288.598 220.5C287.709 218 283.639 203 283.639 203C283.639 203 283.131 192.267 285.674 187.6Z" fill="#5D3323"/>
<path d="M313.098 166.5C313.098 177 299.598 200 299.598 200C299.598 200 299.598 193 298.098 188.5C296.598 184 290.598 183 290.598 182.5C290.598 182 291.098 163 294.098 149.5C297.098 136 304.098 127 304.098 127C304.098 127 312.598 116.5 320.098 111C327.598 105.5 332.098 104 337.098 102.5C342.098 101 347.098 100 359.098 100C371.098 100 385.598 103 390.598 106C395.598 109 405.598 119.5 408.598 127C411.598 134.5 417.598 156 417.598 156L418.598 165V184C418.598 184 410.098 175 410.098 166.5C410.098 158 405.598 147.5 405.598 147.5C405.598 147.5 406.237 151 399.237 134.5C392.237 118 373.598 127 373.598 127L364.598 134.5C364.598 134.5 355.598 136 350.598 134.5C345.598 133 342.598 130 342.598 130C342.598 130 337.098 127.5 331.598 128C326.098 128.5 320.098 133 320.098 133C320.098 133 313.098 140.5 313.098 144.5V166.5Z" fill="#201E12"/>
<path d="M459.598 620H525.598C525.598 620 513.598 582 511.598 569.419C509.598 556.839 511.598 481.677 511.598 481.677L479.098 460L459.598 620Z" fill="#694839"/>
<path d="M216.598 395.5V374.5C216.598 374.5 220.598 328.5 249.098 307C256.275 301.586 279.828 285.374 293.098 285C302.103 284.746 314.239 291.298 325.621 296.532L342.598 302.552C369.554 306.882 403.098 313.5 403.098 313.5C403.098 313.5 415.098 303.5 425.598 298C435.666 292.726 474.518 306.095 478.11 320.351C478.102 320.122 478.098 320 478.098 320L478.178 320.643C478.291 321.158 478.356 321.674 478.373 322.19L499.098 487.5L496.598 553V620H240.598L296.598 582L293.098 540L284.098 503L228.598 481L223.598 425L216.598 395.5Z" fill="url(#paint0_linear_17_39)"/>
<path d="M516.098 481C499.598 485 499.098 487.5 499.098 487.5L482.598 371L479.098 342.5C485.404 345.837 460.223 310.506 475.598 313.5C490.973 316.494 532.598 477 516.098 481Z" fill="#67644E"/>
<path d="M319.432 521.236V491.655L272.95 435L218.598 470C218.598 470 233.098 484 233.098 489.5C233.098 495 231.098 533.5 233.098 543.5C235.098 553.5 240.598 562 240.598 570V619.5H315.282V591.427C315.282 591.427 351.598 618.421 340.598 603.46C329.598 588.5 319.432 521.236 319.432 521.236Z" fill="url(#paint1_linear_17_39)"/>
<path d="M212.598 437.5C212.098 443 218.598 470 218.598 470L256.098 483.5C256.098 483.5 336.598 487 329.098 483.5C321.598 480 299.598 419 299.598 419C299.598 419 286.098 312.5 261.098 304C236.098 295.5 208.098 377.5 207.098 392C206.098 406.5 213.098 432 212.598 437.5Z" fill="#5F5B43"/>
<path fill-rule="evenodd" clip-rule="evenodd" d="M309.368 485.358L308.768 479.013L310.001 478.862C310.399 480.591 310.997 481.899 311.795 482.786C312.59 483.66 313.511 484.033 314.558 483.904C315.322 483.811 315.919 483.401 316.35 482.672C316.788 481.931 316.958 481.051 316.861 480.031C316.726 478.602 315.568 477.115 313.386 475.568C312.8 475.142 312.351 474.812 312.034 474.577C310.49 473.415 309.413 472.32 308.802 471.293C308.196 470.254 307.821 468.977 307.678 467.465C307.468 465.24 307.807 463.425 308.697 462.023C309.588 460.622 310.911 459.815 312.672 459.599C313.506 459.497 314.325 459.592 315.124 459.885C315.923 460.168 316.734 460.66 317.559 461.365L318.035 466.411L316.88 466.553C316.496 464.986 315.923 463.777 315.159 462.921C314.393 462.055 313.56 461.678 312.659 461.789C311.947 461.876 311.393 462.24 310.998 462.88C310.61 463.521 310.459 464.299 310.545 465.213C310.678 466.618 311.85 468.057 314.062 469.529C314.094 469.549 314.121 469.57 314.146 469.59C314.256 469.66 314.423 469.77 314.651 469.918C315.896 470.727 316.829 471.461 317.451 472.119C318.103 472.809 318.64 473.629 319.035 474.537C319.438 475.448 319.688 476.42 319.785 477.452C320.017 479.9 319.692 481.92 318.814 483.509C317.941 485.098 316.644 485.998 314.922 486.209C314.188 486.299 313.359 486.27 312.433 486.124C311.396 485.957 310.371 485.701 309.368 485.358ZM330.514 478.5C330.576 479.156 330.636 479.641 330.696 479.952C330.755 480.266 330.829 480.505 330.919 480.673C331.111 481.064 331.39 481.338 331.757 481.495C332.132 481.65 332.592 481.694 333.137 481.627L333.267 481.611L333.448 483.527L324.694 484.6L324.513 482.684L324.654 482.667C325.2 482.6 325.637 482.446 325.968 482.205C326.298 481.962 326.52 481.627 326.634 481.198C326.689 481.013 326.718 480.761 326.717 480.44C326.724 480.12 326.696 479.631 326.634 478.975L324.947 461.116L323.398 461.306C322.512 461.414 321.851 461.846 321.414 462.599C320.985 463.34 320.683 464.58 320.509 466.32L319.276 466.471L319.093 459.505L334.389 457.63L335.401 464.494L334.201 464.641C333.796 462.996 333.295 461.86 332.699 461.234C332.109 460.595 331.302 460.338 330.277 460.464L328.827 460.641L330.514 478.5ZM339.957 469.145C340.31 472.884 340.912 475.725 341.766 477.671C342.624 479.604 343.668 480.497 344.897 480.346C346.154 480.192 347.012 479.221 347.467 477.434C347.93 475.648 347.998 473.019 347.67 469.55C347.316 465.801 346.713 462.964 345.864 461.041C345.02 459.117 343.985 458.231 342.756 458.382C341.513 458.534 340.654 459.522 340.18 461.348C339.71 463.16 339.637 465.758 339.957 469.145ZM344.903 482.638C343.783 482.784 342.65 482.566 341.636 482.008C340.604 481.446 339.633 480.533 338.718 479.271C337.947 478.193 337.32 476.917 336.835 475.449C336.356 473.967 336.032 472.322 335.862 470.518C335.695 468.749 335.708 467.069 335.904 465.481C336.108 463.891 336.488 462.442 337.048 461.128C337.679 459.641 338.476 458.469 339.44 457.616C340.381 456.763 341.517 456.235 342.714 456.095C343.762 455.96 344.822 456.143 345.787 456.624C346.765 457.098 347.676 457.864 348.518 458.921C349.402 460.034 350.116 461.363 350.659 462.909C351.209 464.441 351.573 466.164 351.753 468.073C351.915 469.783 351.909 471.426 351.733 473.001C351.565 474.563 351.239 475.942 350.757 477.139C350.099 478.808 349.281 480.106 348.302 481.031C347.335 481.939 346.152 482.498 344.903 482.638ZM352.849 479.032C353.6 478.821 354.089 478.431 354.314 477.857C354.54 477.284 354.567 476.096 354.396 474.29L352.998 459.49C352.567 458.82 352.188 458.351 351.862 458.083C351.534 457.802 351.211 457.682 350.89 457.721L350.836 457.728L350.639 455.637L355.021 455.1C355.232 455.074 355.384 455.096 355.48 455.167C355.576 455.239 355.712 455.413 355.893 455.686L365.503 470.209L364.51 459.697C364.406 458.597 364.171 457.784 363.805 457.259C363.446 456.733 362.907 456.427 362.185 456.338L361.987 454.247L367.384 453.586L367.581 455.677C366.88 455.952 366.41 456.365 366.176 456.915C365.949 457.465 365.891 458.331 366.003 459.514L367.522 475.599C367.583 476.243 367.654 476.91 367.734 477.6C367.821 478.288 367.92 479.024 368.031 479.804L366.428 480L354.746 462.461L355.846 474.115C356.006 475.803 356.273 476.921 356.649 477.467C357.03 478.001 357.693 478.287 358.638 478.325L358.836 480.417L353.047 481.127L352.849 479.032ZM371.149 478.905L370.952 476.813C371.638 476.61 372.081 476.313 372.279 475.922C372.484 475.517 372.533 474.759 372.428 473.645L370.973 458.248C370.868 457.135 370.679 456.411 370.405 456.077C370.136 455.73 369.648 455.541 368.939 455.509L368.742 453.418L381.148 451.897L381.645 457.152L380.445 457.299C380.025 456.201 379.508 455.428 378.892 454.983C378.275 454.524 377.506 454.353 376.582 454.467C375.725 454.572 375.185 454.732 374.963 454.949C374.74 455.154 374.668 455.673 374.746 456.505L375.412 463.553L377.081 463.349C377.807 463.26 378.337 462.958 378.671 462.443C379.006 461.928 379.169 461.136 379.164 460.071L380.462 459.912L381.262 468.384L379.976 468.542C379.802 467.484 379.485 466.694 379.024 466.168C378.563 465.644 377.984 465.425 377.286 465.511L375.618 465.715L376.278 472.711C376.385 473.836 376.605 474.608 376.938 475.03C377.279 475.45 377.831 475.614 378.595 475.521C379.606 475.397 380.479 474.911 381.215 474.061C381.951 473.213 382.516 472.041 382.912 470.547L384.167 470.393L383.874 477.345L371.149 478.905ZM402.906 475.012L402.708 472.92C403.402 472.716 403.848 472.419 404.048 472.028C404.251 471.623 404.3 470.865 404.195 469.751L402.74 454.353C402.635 453.241 402.446 452.517 402.173 452.183C401.904 451.836 401.413 451.647 400.696 451.616L400.498 449.525L407.846 448.624L408.043 450.715C407.349 450.919 406.9 451.223 406.696 451.628C406.498 452.02 406.45 452.772 406.556 453.886L408.01 469.283C408.115 470.397 408.303 471.127 408.57 471.473C408.845 471.806 409.339 471.988 410.056 472.019L410.253 474.111L402.906 475.012ZM412.304 472.739L411.705 466.395L412.935 466.244C413.335 467.973 413.931 469.281 414.73 470.167C415.526 471.042 416.446 471.414 417.494 471.286C418.256 471.192 418.855 470.782 419.287 470.053C419.722 469.313 419.892 468.432 419.795 467.413C419.661 465.984 418.503 464.496 416.32 462.95C415.869 462.621 415.418 462.291 414.969 461.959C413.426 460.797 412.348 459.702 411.737 458.674C411.131 457.635 410.758 456.359 410.615 454.847C410.405 452.621 410.743 450.807 411.633 449.405C412.522 448.004 413.848 447.196 415.607 446.981C416.441 446.879 417.26 446.974 418.059 447.267C418.858 447.549 419.669 448.042 420.493 448.747L420.969 453.793L419.815 453.934C419.431 452.368 418.858 451.159 418.093 450.303C417.327 449.437 416.495 449.06 415.593 449.171C414.881 449.258 414.328 449.622 413.932 450.262C413.545 450.903 413.395 451.68 413.481 452.595C413.614 454 414.785 455.439 416.999 456.91C417.03 456.931 417.058 456.951 417.081 456.972L417.585 457.3C418.831 458.108 419.764 458.842 420.385 459.5C421.038 460.191 421.576 461.01 421.971 461.919C422.372 462.829 422.622 463.802 422.719 464.834C422.951 467.282 422.628 469.302 421.749 470.891C420.875 472.48 419.58 473.379 417.856 473.591C417.123 473.68 416.293 473.652 415.368 473.505C414.331 473.338 413.307 473.082 412.304 472.739ZM428.996 446.033L429.19 448.089C428.511 448.303 428.074 448.605 427.876 448.997C427.676 449.39 427.632 450.154 427.739 451.29L429.069 465.37C429.246 467.245 429.525 468.42 429.91 468.895C430.298 469.357 431.015 469.523 432.063 469.395C433.371 469.234 434.378 468.726 435.083 467.868C435.787 466.999 436.423 465.512 436.988 463.403L438.221 463.252L437.945 470.718L424.026 472.424L423.828 470.332C424.514 470.129 424.955 469.833 425.155 469.442C425.36 469.036 425.407 468.279 425.302 467.165L423.847 451.767C423.741 450.642 423.556 449.913 423.289 449.578C423.022 449.231 422.529 449.037 421.813 448.995L421.618 446.939L428.996 446.034L428.996 446.033ZM439.967 470.469L439.769 468.377C440.147 468.177 440.433 467.846 440.624 467.384C440.823 466.921 440.99 466.118 441.125 464.975L443.243 446.543C443.259 446.328 443.268 446.173 443.266 446.078C443.271 445.971 443.269 445.883 443.263 445.812C443.239 445.566 443.176 445.325 443.073 445.087C442.954 444.825 442.805 444.58 442.631 444.36L446.632 443.87L453.034 463.905C453.315 464.772 453.604 465.417 453.901 465.843C454.197 466.268 454.522 466.497 454.869 466.525L455.067 468.617L448.144 469.465L447.946 467.373C448.423 467.28 448.761 467.091 448.962 466.805C449.172 466.518 449.251 466.125 449.204 465.619C449.189 465.467 449.156 465.282 449.106 465.062C449.055 464.833 448.981 464.544 448.882 464.2L447.877 460.466L443.003 461.063L442.756 464.63C442.733 464.99 442.72 465.281 442.718 465.507C442.716 465.702 442.724 465.897 442.742 466.091C442.799 466.701 442.956 467.155 443.211 467.455C443.474 467.756 443.824 467.877 444.261 467.824L444.326 467.816L444.524 469.908L439.967 470.467L439.967 470.469ZM443.296 458.77L447.089 458.305L444.347 449.359L443.296 458.77ZM456.141 466.37C456.892 466.159 457.382 465.768 457.607 465.195C457.832 464.621 457.86 463.434 457.69 461.628L456.292 446.828C455.86 446.158 455.48 445.689 455.155 445.42C454.826 445.14 454.504 445.02 454.184 445.059L454.129 445.066L453.931 442.975L458.312 442.438C458.523 442.412 458.677 442.434 458.771 442.506C458.867 442.577 459.002 442.751 459.184 443.024L468.795 457.547L467.802 447.035C467.698 445.935 467.462 445.122 467.096 444.597C466.738 444.071 466.197 443.765 465.477 443.676L465.28 441.585L470.675 440.924L470.872 443.014C470.172 443.29 469.703 443.703 469.467 444.253C469.24 444.803 469.183 445.669 469.295 446.852L470.814 462.937C470.875 463.581 470.945 464.248 471.025 464.938C471.112 465.626 471.211 466.362 471.321 467.142L469.72 467.338L458.038 449.799L459.139 461.453C459.298 463.141 459.565 464.259 459.939 464.805C460.32 465.339 460.984 465.625 461.929 465.663L462.127 467.755L456.339 468.465L456.141 466.37ZM479.424 459.197C479.584 460.896 479.846 461.989 480.207 462.479C480.571 462.968 481.194 463.158 482.081 463.049C483.608 462.862 484.717 461.842 485.41 459.991C486.11 458.139 486.312 455.66 486.019 452.555C485.681 448.982 484.888 446.274 483.642 444.436C482.395 442.598 480.814 441.796 478.903 442.03C478.505 442.079 478.233 442.248 478.09 442.538C477.957 442.816 477.918 443.265 477.976 443.885L479.423 459.197L479.424 459.197ZM474.442 466.243L474.244 464.151C474.93 463.948 475.373 463.651 475.571 463.26C475.778 462.854 475.825 462.097 475.72 460.983L474.265 445.585C474.16 444.473 473.973 443.749 473.696 443.415C473.429 443.068 472.94 442.879 472.231 442.847L472.034 440.756L479.262 439.87C482.25 439.503 484.716 440.345 486.657 442.395C488.602 444.445 489.757 447.42 490.126 451.323C490.314 453.314 490.235 455.209 489.891 457.006C489.544 458.789 488.957 460.35 488.128 461.685C487.451 462.776 486.626 463.611 485.652 464.192C484.677 464.763 483.448 465.139 481.965 465.321L474.442 466.243Z" fill="#204824"/>
<path d="M468 354C466.495 353.029 225 357.5 225 357.5L229.608 371.389L274.762 375L455 373.5L468 354Z" fill="black"/>
<path d="M383.676 341L355.176 373.5C353.842 373.722 311.676 363.5 311.676 363.5L278.676 364L230.676 357.5C230.676 357.5 217.025 356 215.176 369.5C213.326 383 226.676 384 226.676 384H271.176L255.176 410C252.176 417.5 246.676 435 247.176 441C247.676 447 247.176 457.5 250.676 461.5C254.176 465.5 269.676 467.5 269.676 467.5C269.676 467.5 325.676 471.5 338.176 471.5C350.676 471.5 377.176 453 377.176 453C377.176 453 392.176 442 394.176 435C396.176 428 399.676 416 401.676 412C403.676 408 411.676 397 411.676 397C411.676 397 431.676 388 436.676 386.5C441.676 385 454.176 375.5 454.176 375.5C454.176 375.5 470.176 364.5 472.176 363C474.176 361.5 477.176 357.5 467.676 355.5C460.903 354.074 445.799 361.534 440.676 362C438.613 362.188 446.128 355.5 444.176 355.5C444.176 351.5 437.176 344 427.176 345C417.176 346 406.176 360.5 406.176 360.5L401.176 368L406.176 354L407.5 350C407.5 350 406.5 342.5 404.5 341C402.5 339.5 398.676 337 394.176 337C389.676 337 383.676 341 383.676 341Z" fill="#251D10"/>
<path d="M315.16 366C314.16 361.5 318.16 358.5 318.16 358.5C318.16 358.5 329.66 349 335.16 349C340.66 349 350.16 356.5 350.16 356.5C350.16 356.5 357.16 367.5 353.66 371.5C350.16 375.5 347.16 380.5 342.16 381C337.16 381.5 328.66 377 328.66 377C328.66 377 316.16 370.5 315.16 366Z" fill="#483020"/>
<path d="M321.5 361.5C321.5 361.5 320 360 320 357.5C320 355 334 349 334 349C334 349 338.5 349 342.5 352C344.122 353.217 347.656 354.408 349.5 356.5C352.203 359.566 353 364.5 353 364.5C353 364.5 350.5 368.031 347 370.531C343.5 373.031 333.5 370.531 330.5 370.531C327.5 370.531 321.5 361.5 321.5 361.5Z" fill="#694839"/>
<path d="M384 342.079C382 344.079 368.5 361.579 368.5 361.579L361 371C361 371 361.5 372.157 366.5 370.579C371.5 369 382 355.579 382 355.579C382 355.579 390.101 358.704 395.5 358.579C401.185 358.446 406 354.5 406 354.5C406 354.5 409 349.5 408 346C407 342.5 404 340.5 404 340.5C402.5 339 395.033 336.517 393 337C390.967 337.483 386 340.079 384 342.079Z" fill="#483020"/>
<path d="M403.735 339.624C404.796 340.685 407.451 346.659 406.718 348.124C403.956 348.124 384.235 344.624 385.235 340.624C385.235 339.519 391.473 336.624 394.235 336.624C396.996 336.624 402.735 338.624 403.735 339.624Z" fill="#694839"/>
<path d="M421 348C419 349 411 356.5 411 356.5L404.5 364.5L437.5 364.201C437.5 364.201 443.5 361.201 443.5 356.701C443.5 352.201 438.5 348.201 438.5 348.201C438.5 348.201 436.5 347.201 433.5 346.201C430.5 345.201 423 347 421 348Z" fill="#483020"/>
<path d="M423.978 346.741C421.004 347.736 418.27 350.549 418.27 350.549C418.27 350.549 417.71 353.269 418.987 353.791C420.264 354.313 426.453 354.142 426.453 354.142L430.749 352.705C430.749 352.705 432.592 352.722 433.959 351.315C435.326 349.909 431.87 347.267 431.87 347.267L429.742 346.396C429.742 346.396 426.952 345.746 423.978 346.741Z" fill="#68463B"/>
<path d="M301.225 386.231C299.274 384.81 273.431 384.81 271.48 385.283C269.53 385.757 255.876 409.456 255.876 409.456L251 424.149C251 424.149 312.587 433.766 316 429.5C319.413 425.234 321.217 407.56 320.242 403.295C319.267 399.029 303.175 387.653 301.225 386.231Z" fill="#694839"/>
<path d="M216.667 375.5C216.667 375.5 215.167 370.5 216.667 367C218.167 363.5 224.167 361 224.167 361L276.5 376C276.5 376 303 377.5 305.5 381.5C308 385.5 308 391 308 391L300.5 386.5L282.667 385.5C282.667 385.5 228.5 385.5 226.5 385C224.5 384.5 219.167 381 219.167 381L216.667 375.5Z" fill="#483020"/>
<path d="M471.318 364.667C471.318 364.667 452.318 368.667 450.318 366.667C448.318 364.667 456.318 359.167 458.318 357.667C460.318 356.167 466.818 357.667 467.818 357.667C468.818 357.667 473.318 358.667 473.818 360.167C474.318 361.667 471.318 364.667 471.318 364.667Z" fill="#483020"/>
<path d="M474.032 359.5C473.532 358.5 468.064 357.5 465.032 358C462 358.5 459.532 361 460.032 362.5C460.532 364 469.032 364 469.032 364L474.032 362C474.032 362 474.532 360.5 474.032 359.5Z" fill="#68463B"/>
<path d="M244.155 369.13C244.604 367.181 231.899 362.2 229.35 362.126C226.802 362.051 222.792 361.64 220.769 363.739C218.745 365.838 217.959 369.249 219.196 370.56C220.433 371.871 233.326 373.817 233.326 373.817C233.326 373.817 239.884 374.303 241.57 373.666C243.257 373.028 243.706 371.079 244.155 369.13Z" fill="#694839"/>
<path d="M488.778 172.764L463.778 220.764L504.278 231.764L546.778 227.264C546.778 227.264 547.278 221.764 545.778 208.764C544.278 195.764 526.778 175.764 526.778 175.764L519.278 174.764L497.778 168.764L488.778 172.764Z" fill="#D3C8B6"/>
<path d="M300.778 331.264L322.711 319.926L494.094 261.264L528.778 319.926L400.278 329.264L300.778 331.264Z" fill="#0A180B"/>
<path d="M564.278 281.764C558.278 267.264 551.278 267.264 551.278 267.264L473.778 285.764C473.778 285.764 457.278 294.764 464.778 308.764C472.278 322.764 495.278 315.264 495.278 315.264L551.778 308.264C551.778 308.264 570.278 296.264 564.278 281.764Z" fill="#132C19"/>
<path d="M458.278 309.264C450.778 316.264 380.278 318.264 380.278 318.264C380.278 318.264 379.278 314.264 379.278 312.264C379.278 310.264 381.278 308.264 385.278 303.764C389.278 299.264 528.278 219.264 528.278 219.264L531.778 218.764H536.778L546.778 227.264L551.278 267.264C551.278 267.264 479.778 286.264 471.278 288.764C462.778 291.264 465.778 302.264 458.278 309.264Z" fill="#6B6451"/>
<path d="M299.278 333.264L297.778 331.264L396.278 326.764C396.278 326.764 454.278 315.764 460.778 315.764C467.278 315.764 479.778 318.264 479.778 318.264L516.278 309.764L545.778 307.764L557.778 303.264L567.778 322.264L555.778 326.764L508.021 333.264H299.278Z" fill="#284830"/>
<path d="M380.278 318.264H374.278L371.778 312.264L382.778 298.764L518.278 214.764L528.278 219.264C528.278 219.264 389.278 301.764 386.278 304.264C383.278 306.764 380.778 310.264 380.278 312.264C379.778 314.264 380.278 318.264 380.278 318.264Z" fill="#968B6F"/>
<path d="M363.778 204.764H375.278L422.278 225.264L454.778 219.264L485.778 235.764L415.278 272.264L403.778 273.764L358.278 225.264V213.264L363.778 204.764Z" stroke="black"/>
<path d="M119.778 328.764C111.778 324.264 110.778 315.264 110.778 315.264L186.278 333.264H507.778L555.778 326.764L567.778 322.264C567.778 322.264 577.278 334.764 566.778 340.264C556.278 345.764 545.278 348.764 545.278 348.764L530.778 351.493L205.778 354.993C205.778 354.993 169.278 347.764 158.278 345.764C147.278 343.764 127.778 333.264 119.778 328.764Z" fill="#F4ECE1"/>
<path d="M374.778 195.264L352.778 179.764L362.278 171.264L370.778 162.264C370.778 162.264 376.278 158.264 378.778 157.764C381.278 157.264 396.778 154.764 400.778 156.764C404.778 158.764 413.778 166.764 413.778 166.764L398.778 181.764L374.778 195.264Z" fill="#DFDAC6"/>
<path d="M293.778 333.264L289.778 320.764L381.278 266.764L398.778 289.764C398.778 289.764 385.778 298.764 383.278 301.264C380.778 303.764 376.778 309.264 376.278 311.764C375.778 314.264 376.278 318.264 376.278 318.264L308.778 329.264L293.778 333.264Z" fill="#786449"/>
<path d="M218.278 236.264C211.679 242.63 203.278 242.764 193.778 247.764C184.278 252.764 219.278 253.764 219.278 253.764L328.778 193.764L332.778 194.764L353.278 179.264L362.778 171.264L368.278 165.764L370.778 162.264H362.778C359.778 162.264 350.778 165.264 348.278 166.764C345.778 168.264 335.778 183.264 333.778 185.264C331.778 187.264 320.278 191.264 320.278 191.264C320.278 191.264 315.076 187.157 310.278 190.264C306.317 192.829 307.278 192.264 305.278 195.764C303.584 198.73 297.985 201.089 294.778 202.264C288.911 204.414 285.436 201.237 280.278 204.764C276.656 207.241 276.412 209.305 272.778 211.764C271.185 212.842 270.106 213.167 268.278 213.764C262.71 215.585 259.744 213.157 254.778 216.264C250.83 218.735 250.647 221.171 246.778 223.764C244.367 225.38 242.608 225.618 239.778 226.264C234.448 227.482 232.278 225.764 227.278 228.264C222.278 230.764 221.792 232.875 218.278 236.264Z" fill="#F0F2E9"/>
<path d="M328.778 193.764L196.278 247.764L185.778 258.264L193.778 264.764L217.278 300.764L291.278 328.264C291.278 328.264 390.278 299.264 395.278 293.264C400.278 287.264 418.778 274.764 418.778 274.764L333.778 193.764H328.778Z" fill="#DFDAC6"/>
<path d="M105.778 280.264C109.778 274.264 128.778 266.764 128.778 266.764L219.778 285.264L223.278 280.264L219.778 269.264C219.778 269.264 230.778 269.264 236.778 271.264C242.778 273.264 255.278 279.764 260.778 285.264C266.278 290.764 299.278 333.264 299.278 333.264H184.778L111.278 315.764C111.278 315.764 101.455 306.919 100.278 299.264C99.1046 291.629 101.778 286.264 105.778 280.264Z" fill="#9A9581"/>
<path d="M128.278 271.764C127.278 269.764 128.278 266.764 128.278 266.764L196.278 247.764C196.278 247.764 192.278 255.264 192.278 257.264C192.278 259.264 194.778 262.264 196.278 262.764C197.778 263.264 219.778 269.264 219.778 269.264C219.778 269.264 223.778 275.764 223.778 278.764C223.778 281.764 222.278 284.764 219.778 286.764C217.278 288.764 202.778 290.264 199.278 290.764C195.778 291.264 147.278 281.764 145.778 281.264C144.278 280.764 129.278 273.764 128.278 271.764Z" fill="#F0F1E9"/>
<path d="M284.278 244.764C278.278 244.264 266.778 251.264 263.778 255.764C260.778 260.264 295.778 317.264 299.278 318.764C302.778 320.264 320.778 312.764 320.278 308.764C319.778 304.764 310.278 288.764 310.278 288.764C310.278 288.764 337.778 303.264 344.778 303.264C351.778 303.264 371.778 293.264 372.278 292.264C372.778 291.264 372.778 290.264 372.278 286.764C371.778 283.264 355.278 258.264 355.278 258.264C355.278 258.264 337.278 228.764 333.278 227.264C329.278 225.764 312.278 234.264 311.278 237.264C310.278 240.264 327.278 264.264 327.278 264.264C327.278 264.264 290.278 245.264 284.278 244.764Z" fill="#96896C"/>
<path d="M302.278 313.264C298.778 312.764 265.278 261.264 268.278 257.264C271.278 253.264 280.278 249.264 284.278 249.764C288.278 250.264 333.778 270.764 333.778 270.764C333.778 270.764 318.278 242.764 318.778 240.264C319.278 237.764 328.778 233.264 331.778 233.264C334.778 233.264 368.278 283.264 366.278 287.764C364.278 292.264 349.778 296.764 346.278 296.764C342.778 296.764 302.278 280.264 302.278 280.264C302.278 280.264 314.278 302.764 314.278 305.764C314.278 308.764 305.778 313.764 302.278 313.264Z" fill="#284933"/>
<path d="M333.278 196.764C332.778 195.264 332.278 193.764 334.278 190.264C336.278 186.764 353.278 179.264 353.278 179.264L458.778 219.264C458.778 219.264 478.278 225.764 484.278 225.764C490.278 225.764 515.278 216.264 518.278 214.764C521.278 213.264 522.778 213.764 522.778 216.764C522.778 219.764 403.278 286.264 403.278 286.264C403.278 286.264 333.778 198.264 333.278 196.764Z" fill="#978B72"/>
<path d="M409.278 281.764C405.278 282.264 360.778 226.264 361.278 219.264C361.778 212.264 373.278 211.264 373.278 211.264L463.278 220.764C463.278 220.764 485.778 235.264 485.278 238.764C484.778 242.264 413.278 281.264 409.278 281.764Z" fill="#BABDAA"/>
<path d="M373.778 206.264C369.778 202.764 353.278 179.264 353.278 179.264C353.278 179.264 359.278 177.264 362.778 177.764C366.278 178.264 405.278 200.764 405.278 200.764C405.278 200.764 429.778 209.264 434.278 209.264C438.778 209.264 453.278 204.264 453.278 204.264C453.278 204.264 464.278 196.764 466.278 194.764C468.278 192.764 476.778 180.764 476.778 180.764L482.278 173.264C482.278 173.264 486.278 168.764 488.278 167.764C490.278 166.764 493.278 166.264 497.278 166.264C501.278 166.264 526.778 175.764 526.778 175.764C526.778 175.764 520.278 176.764 517.778 175.764C515.278 174.764 499.778 170.264 497.278 170.264C494.778 170.264 492.278 171.764 489.778 173.264C487.278 174.764 484.278 184.264 484.278 184.264L472.278 207.764C472.278 207.764 465.278 218.764 462.778 221.264C460.278 223.764 440.778 230.764 434.278 231.264C427.778 231.764 412.778 229.764 409.278 229.264C405.778 228.764 377.778 209.764 373.778 206.264Z" fill="#345249"/>
<circle cx="345.278" cy="196.764" r="4.5" fill="#5D5D53"/>
<circle cx="352.278" cy="209.764" r="3.5" fill="#5D5D53"/>
<path fill-rule="evenodd" clip-rule="evenodd" d="M486.508 306.701L485.845 309.1L477.623 310.991L478.11 309.229L486.508 306.701ZM492.87 295.822L493.957 292.769L499.02 291.156L494.189 291.986L494.972 289.4C494.972 289.4 498.347 288.623 503.507 287.436C508.668 286.25 509.321 288.416 509.367 290.018C509.414 291.62 508.903 292.927 507.888 293.942C506.872 294.956 505.726 295.348 505.726 295.348C506.791 295.781 508.036 297.274 508.218 298.345C508.4 299.417 508.554 300.533 506.924 302.457C505.293 304.381 502.496 305.319 502.496 305.319L490.622 308.05L489.445 305.953L495.097 304.217L489.031 305.164L487.636 302.682L486.851 305.538L478.953 306.798L479.537 304.778L496.402 299.706L480.235 302.423L480.728 300.675L497.746 295.583L481.418 298.264L482.022 296.243L491.497 293.437L492.87 295.822ZM483.247 292.119L490.005 290.564L491.031 292.493L482.678 293.876L483.247 292.119ZM500.188 294.813C500.442 293.644 500.792 292.535 501.07 291.381C501.744 291.207 501.997 291.142 502.568 291.037C503.319 290.898 503.786 291.431 503.945 291.817C504.169 292.359 504.004 292.92 503.758 293.334C503.151 294.355 501.548 294.58 500.188 294.813ZM500.903 301.487C501.862 301.291 502.489 300.188 502.406 299.382C502.326 298.608 501.529 298.058 500.902 298.191C500.424 298.293 499.962 298.402 499.464 298.522C499.122 299.653 498.813 300.805 498.559 301.99C499.481 301.797 500.062 301.659 500.903 301.487" fill="#5A6658"/>
<path fill-rule="evenodd" clip-rule="evenodd" d="M537.036 202.497L539.174 201.565L533.61 185L531.472 185.932L537.036 202.497Z" fill="#90937E"/>
<path fill-rule="evenodd" clip-rule="evenodd" d="M517.219 196.591C516.174 197.046 515.389 198.047 515.052 199.35L513.218 193.889L511.079 194.821L516.643 211.386L518.605 210.531L518.07 208.939C519.327 209.882 520.319 209.871 521.46 209.373C524.05 208.245 524.777 204.449 523.64 201.064C522.435 197.478 519.534 195.581 517.219 196.591V196.591ZM520.345 206.928C518.855 207.577 517.083 206.421 516.386 204.344C515.688 202.268 516.33 200.059 517.82 199.41C519.309 198.761 521.082 199.917 521.779 201.993C522.476 204.07 521.834 206.279 520.345 206.928Z" fill="#90937E"/>
<path fill-rule="evenodd" clip-rule="evenodd" d="M529.403 191.951L529.741 192.958C528.727 192.244 527.557 192.096 526.512 192.552C524.196 193.561 523.147 197.178 524.352 200.765C525.489 204.149 528.254 206.423 530.843 205.294C531.985 204.796 532.73 204.051 533.113 202.393L533.648 203.985L535.61 203.13L531.542 191.019L529.403 191.951V191.951ZM530.238 202.616C528.749 203.265 526.976 202.108 526.279 200.032C525.581 197.956 526.224 195.747 527.713 195.098C529.202 194.449 530.975 195.605 531.672 197.681C532.37 199.757 531.728 201.967 530.238 202.616Z" fill="#90937E"/>
<path d="M391.778 211.264C391.778 211.264 374.778 199.264 374.778 195.764C374.778 192.264 406.778 166.764 406.778 166.764C406.778 166.764 413.778 163.764 415.778 165.264C417.778 166.764 421.278 176.264 421.278 179.764C421.278 183.264 419.778 184.764 418.278 186.764C416.778 188.764 410.778 195.264 410.778 195.264C410.778 195.264 407.778 198.264 407.778 200.764C407.778 203.264 409.278 206.264 410.278 208.764C411.278 211.264 421.278 216.264 421.278 218.264C421.278 220.264 419.278 220.764 419.278 220.764C419.278 220.764 412.278 220.264 409.278 219.264C406.278 218.264 391.778 211.264 391.778 211.264Z" fill="#070D09"/>
</g>
<defs>
<filter id="filter0_d_17_39" x="0" y="0" width="701.778" height="720" filterUnits="userSpaceOnUse" color-interpolation-filters="sRGB">
<feFlood flood-opacity="0" result="BackgroundImageFix"/>
<feColorMatrix in="SourceAlpha" type="matrix" values="0 0 0 0 0 0 0 0 0 0 0 0 0 0 0 0 0 0 127 0" result="hardAlpha"/>
<feOffset/>
<feGaussianBlur stdDeviation="50"/>
<feComposite in2="hardAlpha" operator="out"/>
<feColorMatrix type="matrix" values="0 0 0 0 1 0 0 0 0 1 0 0 0 0 1 0 0 0 0.25 0"/>
<feBlend mode="normal" in2="BackgroundImageFix" result="effect1_dropShadow_17_39"/>
<feBlend mode="normal" in="SourceGraphic" in2="effect1_dropShadow_17_39" result="shape"/>
</filter>
<linearGradient id="paint0_linear_17_39" x1="413.598" y1="551" x2="263.598" y2="333" gradientUnits="userSpaceOnUse">
<stop stop-color="#959386"/>
<stop offset="1" stop-color="#74736C"/>
</linearGradient>
<linearGradient id="paint1_linear_17_39" x1="278.345" y1="435" x2="278.345" y2="646.578" gradientUnits="userSpaceOnUse">
<stop stop-color="#4D492E"/>
<stop offset="1" stop-color="#959386"/>
</linearGradient>
</defs>
</svg>
