<svg width="502" height="316" viewBox="0 0 502 316" fill="none" xmlns="http://www.w3.org/2000/svg">
<path d="M368 198C366.495 197.029 125 201.5 125 201.5L129.608 215.389L174.762 219L355 217.5L368 198Z" fill="black"/>
<path d="M283.676 185L255.176 217.5C253.842 217.722 211.676 207.5 211.676 207.5L178.676 208L130.676 201.5C130.676 201.5 117.025 200 115.176 213.5C113.326 227 126.676 228 126.676 228H171.176L155.176 254C152.176 261.5 146.676 279 147.176 285C147.676 291 147.176 301.5 150.676 305.5C154.176 309.5 169.676 311.5 169.676 311.5C169.676 311.5 225.676 315.5 238.176 315.5C250.676 315.5 277.176 297 277.176 297C277.176 297 292.176 286 294.176 279C296.176 272 299.676 260 301.676 256C303.676 252 311.676 241 311.676 241C311.676 241 331.676 232 336.676 230.5C341.676 229 354.176 219.5 354.176 219.5C354.176 219.5 370.176 208.5 372.176 207C374.176 205.5 377.176 201.5 367.676 199.5C360.903 198.074 345.799 205.534 340.676 206C338.613 206.188 346.128 199.5 344.176 199.5C344.176 195.5 337.176 188 327.176 189C317.176 190 306.176 204.5 306.176 204.5L301.176 212L306.176 198L307.5 194C307.5 194 306.5 186.5 304.5 185C302.5 183.5 298.676 181 294.176 181C289.676 181 283.676 185 283.676 185Z" fill="#251D10"/>
<path d="M215.16 210C214.16 205.5 218.16 202.5 218.16 202.5C218.16 202.5 229.66 193 235.16 193C240.66 193 250.16 200.5 250.16 200.5C250.16 200.5 257.16 211.5 253.66 215.5C250.16 219.5 247.16 224.5 242.16 225C237.16 225.5 228.66 221 228.66 221C228.66 221 216.16 214.5 215.16 210Z" fill="#483020"/>
<path d="M221.5 205.5C221.5 205.5 220 204 220 201.5C220 199 234 193 234 193C234 193 238.5 193 242.5 196C244.122 197.217 247.656 198.408 249.5 200.5C252.203 203.566 253 208.5 253 208.5C253 208.5 250.5 212.031 247 214.531C243.5 217.031 233.5 214.531 230.5 214.531C227.5 214.531 221.5 205.5 221.5 205.5Z" fill="#694839"/>
<path d="M284 186.079C282 188.079 268.5 205.579 268.5 205.579L261 215C261 215 261.5 216.157 266.5 214.579C271.5 213 282 199.579 282 199.579C282 199.579 290.101 202.704 295.5 202.579C301.185 202.446 306 198.5 306 198.5C306 198.5 309 193.5 308 190C307 186.5 304 184.5 304 184.5C302.5 183 295.033 180.517 293 181C290.967 181.483 286 184.079 284 186.079Z" fill="#483020"/>
<path d="M303.735 183.624C304.796 184.685 307.451 190.659 306.718 192.124C303.956 192.124 284.235 188.624 285.235 184.624C285.235 183.519 291.473 180.624 294.235 180.624C296.996 180.624 302.735 182.624 303.735 183.624Z" fill="#694839"/>
<path d="M321 192C319 193 311 200.5 311 200.5L304.5 208.5L337.5 208.201C337.5 208.201 343.5 205.201 343.5 200.701C343.5 196.201 338.5 192.201 338.5 192.201C338.5 192.201 336.5 191.201 333.5 190.201C330.5 189.201 323 191 321 192Z" fill="#483020"/>
<path d="M323.978 190.741C321.004 191.736 318.27 194.549 318.27 194.549C318.27 194.549 317.71 197.269 318.987 197.791C320.264 198.313 326.453 198.142 326.453 198.142L330.749 196.705C330.749 196.705 332.592 196.722 333.959 195.315C335.326 193.909 331.87 191.267 331.87 191.267L329.742 190.396C329.742 190.396 326.952 189.746 323.978 190.741Z" fill="#68463B"/>
<path d="M201.225 230.231C199.274 228.81 173.431 228.81 171.48 229.283C169.53 229.757 155.876 253.456 155.876 253.456L151 268.149C151 268.149 212.587 277.766 216 273.5C219.413 269.234 221.217 251.56 220.242 247.295C219.267 243.029 203.175 231.653 201.225 230.231Z" fill="#694839"/>
<path d="M116.667 219.5C116.667 219.5 115.167 214.5 116.667 211C118.167 207.5 124.167 205 124.167 205L176.5 220C176.5 220 203 221.5 205.5 225.5C208 229.5 208 235 208 235L200.5 230.5L182.667 229.5C182.667 229.5 128.5 229.5 126.5 229C124.5 228.5 119.167 225 119.167 225L116.667 219.5Z" fill="#483020"/>
<path d="M371.318 208.667C371.318 208.667 352.318 212.667 350.318 210.667C348.318 208.667 356.318 203.167 358.318 201.667C360.318 200.167 366.818 201.667 367.818 201.667C368.818 201.667 373.318 202.667 373.818 204.167C374.318 205.667 371.318 208.667 371.318 208.667Z" fill="#483020"/>
<path d="M374.032 203.5C373.532 202.5 368.064 201.5 365.032 202C362 202.5 359.532 205 360.032 206.5C360.532 208 369.032 208 369.032 208L374.032 206C374.032 206 374.532 204.5 374.032 203.5Z" fill="#68463B"/>
<path d="M144.155 213.13C144.604 211.181 131.899 206.2 129.35 206.126C126.802 206.051 122.792 205.64 120.769 207.739C118.745 209.838 117.959 213.249 119.196 214.56C120.433 215.871 133.326 217.817 133.326 217.817C133.326 217.817 139.884 218.303 141.57 217.666C143.257 217.028 143.706 215.079 144.155 213.13Z" fill="#694839"/>
<path d="M388.778 16.7643L363.778 64.7643L404.278 75.7643L446.778 71.2643C446.778 71.2643 447.278 65.7643 445.778 52.7643C444.278 39.7643 426.778 19.7643 426.778 19.7643L419.278 18.7643L397.778 12.7643L388.778 16.7643Z" fill="#D3C8B6"/>
<path d="M200.778 175.264L222.711 163.926L394.094 105.264L428.778 163.926L300.278 173.264L200.778 175.264Z" fill="#0A180B"/>
<path d="M464.278 125.764C458.278 111.264 451.278 111.264 451.278 111.264L373.778 129.764C373.778 129.764 357.278 138.764 364.778 152.764C372.278 166.764 395.278 159.264 395.278 159.264L451.778 152.264C451.778 152.264 470.278 140.264 464.278 125.764Z" fill="#132C19"/>
<path d="M358.278 153.264C350.778 160.264 280.278 162.264 280.278 162.264C280.278 162.264 279.278 158.264 279.278 156.264C279.278 154.264 281.278 152.264 285.278 147.764C289.278 143.264 428.278 63.2643 428.278 63.2643L431.778 62.7643H436.778L446.778 71.2643L451.278 111.264C451.278 111.264 379.778 130.264 371.278 132.764C362.778 135.264 365.778 146.264 358.278 153.264Z" fill="#6B6451"/>
<path d="M199.278 177.264L197.778 175.264L296.278 170.764C296.278 170.764 354.278 159.764 360.778 159.764C367.278 159.764 379.778 162.264 379.778 162.264L416.278 153.764L445.778 151.764L457.778 147.264L467.778 166.264L455.778 170.764L408.021 177.264H199.278Z" fill="#284830"/>
<path d="M280.278 162.264H274.278L271.778 156.264L282.778 142.764L418.278 58.7643L428.278 63.2643C428.278 63.2643 289.278 145.764 286.278 148.264C283.278 150.764 280.778 154.264 280.278 156.264C279.778 158.264 280.278 162.264 280.278 162.264Z" fill="#968B6F"/>
<path d="M263.778 48.7643H275.278L322.278 69.2643L354.778 63.2643L385.778 79.7643L315.278 116.264L303.778 117.764L258.278 69.2643V57.2643L263.778 48.7643Z" stroke="black"/>
<path d="M19.7782 172.764C11.7782 168.264 10.7782 159.264 10.7782 159.264L86.2782 177.264H407.778L455.778 170.764L467.778 166.264C467.778 166.264 477.278 178.764 466.778 184.264C456.278 189.764 445.278 192.764 445.278 192.764L430.778 195.493L105.778 198.993C105.778 198.993 69.2782 191.764 58.2782 189.764C47.2782 187.764 27.7782 177.264 19.7782 172.764Z" fill="#F4ECE1"/>
<path d="M274.778 39.2643L252.778 23.7643L262.278 15.2643L270.778 6.26431C270.778 6.26431 276.278 2.26432 278.778 1.76432C281.278 1.26432 296.778 -1.23568 300.778 0.764318C304.778 2.76432 313.778 10.7643 313.778 10.7643L298.778 25.7643L274.778 39.2643Z" fill="#DFDAC6"/>
<path d="M193.778 177.264L189.778 164.764L281.278 110.764L298.778 133.764C298.778 133.764 285.778 142.764 283.278 145.264C280.778 147.764 276.778 153.264 276.278 155.764C275.778 158.264 276.278 162.264 276.278 162.264L208.778 173.264L193.778 177.264Z" fill="#786449"/>
<path d="M118.278 80.2643C111.679 86.6299 103.278 86.7643 93.7782 91.7643C84.2782 96.7643 119.278 97.7643 119.278 97.7643L228.778 37.7643L232.778 38.7643L253.278 23.2643L262.778 15.2643L268.278 9.76431L270.778 6.26431H262.778C259.778 6.26431 250.778 9.26431 248.278 10.7643C245.778 12.2643 235.778 27.2643 233.778 29.2643C231.778 31.2643 220.278 35.2643 220.278 35.2643C220.278 35.2643 215.076 31.1571 210.278 34.2643C206.317 36.8293 207.278 36.2643 205.278 39.7643C203.584 42.73 197.985 45.0892 194.778 46.2643C188.911 48.414 185.436 45.237 180.278 48.7643C176.656 51.2414 176.412 53.3052 172.778 55.7643C171.185 56.842 170.106 57.1666 168.278 57.7643C162.71 59.5848 159.744 57.1573 154.778 60.2643C150.83 62.7348 150.647 65.171 146.778 67.7643C144.367 69.3805 142.608 69.618 139.778 70.2643C134.448 71.4816 132.278 69.7643 127.278 72.2643C122.278 74.7643 121.792 76.8753 118.278 80.2643Z" fill="#F0F2E9"/>
<path d="M228.778 37.7643L96.2782 91.7643L85.7782 102.264L93.7782 108.764L117.278 144.764L191.278 172.264C191.278 172.264 290.278 143.264 295.278 137.264C300.278 131.264 318.778 118.764 318.778 118.764L233.778 37.7643H228.778Z" fill="#DFDAC6"/>
<path d="M5.7782 124.264C9.7782 118.264 28.7782 110.764 28.7782 110.764L119.778 129.264L123.278 124.264L119.778 113.264C119.778 113.264 130.778 113.264 136.778 115.264C142.778 117.264 155.278 123.764 160.778 129.264C166.278 134.764 199.278 177.264 199.278 177.264H84.7782L11.2782 159.764C11.2782 159.764 1.45482 150.919 0.278204 143.264C-0.895411 135.629 1.7782 130.264 5.7782 124.264Z" fill="#9A9581"/>
<path d="M28.2782 115.764C27.2782 113.764 28.2782 110.764 28.2782 110.764L96.2782 91.7643C96.2782 91.7643 92.2782 99.2643 92.2782 101.264C92.2782 103.264 94.7782 106.264 96.2782 106.764C97.7782 107.264 119.778 113.264 119.778 113.264C119.778 113.264 123.778 119.764 123.778 122.764C123.778 125.764 122.278 128.764 119.778 130.764C117.278 132.764 102.778 134.264 99.2782 134.764C95.7782 135.264 47.2782 125.764 45.7782 125.264C44.2782 124.764 29.2782 117.764 28.2782 115.764Z" fill="#F0F1E9"/>
<path d="M184.278 88.7643C178.278 88.2643 166.778 95.2643 163.778 99.7643C160.778 104.264 195.778 161.264 199.278 162.764C202.778 164.264 220.778 156.764 220.278 152.764C219.778 148.764 210.278 132.764 210.278 132.764C210.278 132.764 237.778 147.264 244.778 147.264C251.778 147.264 271.778 137.264 272.278 136.264C272.778 135.264 272.778 134.264 272.278 130.764C271.778 127.264 255.278 102.264 255.278 102.264C255.278 102.264 237.278 72.7643 233.278 71.2643C229.278 69.7643 212.278 78.2643 211.278 81.2643C210.278 84.2643 227.278 108.264 227.278 108.264C227.278 108.264 190.278 89.2643 184.278 88.7643Z" fill="#96896C"/>
<path d="M202.278 157.264C198.778 156.764 165.278 105.264 168.278 101.264C171.278 97.2643 180.278 93.2643 184.278 93.7643C188.278 94.2643 233.778 114.764 233.778 114.764C233.778 114.764 218.278 86.7643 218.778 84.2643C219.278 81.7643 228.778 77.2643 231.778 77.2643C234.778 77.2643 268.278 127.264 266.278 131.764C264.278 136.264 249.778 140.764 246.278 140.764C242.778 140.764 202.278 124.264 202.278 124.264C202.278 124.264 214.278 146.764 214.278 149.764C214.278 152.764 205.778 157.764 202.278 157.264Z" fill="#284933"/>
<path d="M233.278 40.7643C232.778 39.2643 232.278 37.7643 234.278 34.2643C236.278 30.7643 253.278 23.2643 253.278 23.2643L358.778 63.2643C358.778 63.2643 378.278 69.7643 384.278 69.7643C390.278 69.7643 415.278 60.2643 418.278 58.7643C421.278 57.2643 422.778 57.7643 422.778 60.7643C422.778 63.7643 303.278 130.264 303.278 130.264C303.278 130.264 233.778 42.2643 233.278 40.7643Z" fill="#978B72"/>
<path d="M309.278 125.764C305.278 126.264 260.778 70.2643 261.278 63.2643C261.778 56.2643 273.278 55.2643 273.278 55.2643L363.278 64.7643C363.278 64.7643 385.778 79.2643 385.278 82.7643C384.778 86.2643 313.278 125.264 309.278 125.764Z" fill="#BABDAA"/>
<path d="M273.778 50.2643C269.778 46.7643 253.278 23.2643 253.278 23.2643C253.278 23.2643 259.278 21.2643 262.778 21.7643C266.278 22.2643 305.278 44.7643 305.278 44.7643C305.278 44.7643 329.778 53.2643 334.278 53.2643C338.778 53.2643 353.278 48.2643 353.278 48.2643C353.278 48.2643 364.278 40.7643 366.278 38.7643C368.278 36.7643 376.778 24.7643 376.778 24.7643L382.278 17.2643C382.278 17.2643 386.278 12.7643 388.278 11.7643C390.278 10.7643 393.278 10.2643 397.278 10.2643C401.278 10.2643 426.778 19.7643 426.778 19.7643C426.778 19.7643 420.278 20.7643 417.778 19.7643C415.278 18.7643 399.778 14.2643 397.278 14.2643C394.778 14.2643 392.278 15.7643 389.778 17.2643C387.278 18.7643 384.278 28.2643 384.278 28.2643L372.278 51.7643C372.278 51.7643 365.278 62.7643 362.778 65.2643C360.278 67.7643 340.778 74.7643 334.278 75.2643C327.778 75.7643 312.778 73.7643 309.278 73.2643C305.778 72.7643 277.778 53.7643 273.778 50.2643Z" fill="#345249"/>
<circle cx="245.278" cy="40.7643" r="4.5" fill="#5D5D53"/>
<circle cx="252.278" cy="53.7643" r="3.5" fill="#5D5D53"/>
<path fill-rule="evenodd" clip-rule="evenodd" d="M386.508 150.701L385.845 153.1L377.623 154.991L378.11 153.229L386.508 150.701ZM392.87 139.822L393.957 136.769L399.02 135.156L394.189 135.986L394.972 133.4C394.972 133.4 398.347 132.623 403.507 131.436C408.668 130.25 409.321 132.416 409.367 134.018C409.414 135.62 408.903 136.927 407.888 137.942C406.872 138.956 405.726 139.348 405.726 139.348C406.791 139.781 408.036 141.274 408.218 142.345C408.4 143.417 408.554 144.533 406.924 146.457C405.293 148.381 402.496 149.319 402.496 149.319L390.622 152.05L389.445 149.953L395.097 148.217L389.031 149.164L387.636 146.682L386.851 149.538L378.953 150.798L379.537 148.778L396.402 143.706L380.235 146.423L380.728 144.675L397.746 139.583L381.418 142.264L382.022 140.243L391.497 137.437L392.87 139.822ZM383.247 136.119L390.005 134.564L391.031 136.493L382.678 137.876L383.247 136.119ZM400.188 138.813C400.442 137.644 400.792 136.535 401.07 135.381C401.744 135.207 401.997 135.142 402.568 135.037C403.319 134.898 403.786 135.431 403.945 135.817C404.169 136.359 404.004 136.92 403.758 137.334C403.151 138.355 401.548 138.58 400.188 138.813ZM400.903 145.487C401.862 145.291 402.489 144.188 402.406 143.382C402.326 142.608 401.529 142.058 400.902 142.191C400.424 142.293 399.962 142.402 399.464 142.522C399.122 143.653 398.813 144.805 398.559 145.99C399.481 145.797 400.062 145.659 400.903 145.487" fill="#5A6658"/>
<path fill-rule="evenodd" clip-rule="evenodd" d="M438.51 43.3483L440.053 42.7577L436.038 32.2643L434.494 32.8548L438.51 43.3483Z" fill="#90937E"/>
<path fill-rule="evenodd" clip-rule="evenodd" d="M424.209 39.6069C423.455 39.8955 422.888 40.5291 422.645 41.3545L421.322 37.8954L419.778 38.486L423.793 48.9792L425.209 48.4375L424.823 47.4293C425.73 48.0264 426.446 48.0194 427.27 47.7042C429.138 46.9893 429.663 44.5845 428.842 42.4404C427.973 40.1686 425.88 38.9674 424.209 39.6069V39.6069ZM426.465 46.1554C425.39 46.5666 424.111 45.8338 423.608 44.5185C423.104 43.2034 423.568 41.8041 424.642 41.3928C425.717 40.9816 426.997 41.7141 427.5 43.0292C428.003 44.3445 427.539 45.7441 426.465 46.1554Z" fill="#90937E"/>
<path fill-rule="evenodd" clip-rule="evenodd" d="M433.002 36.6679L433.246 37.3056C432.514 36.853 431.669 36.7596 430.915 37.0482C429.244 37.6876 428.487 39.9791 429.356 42.251C430.177 44.3951 432.173 45.8351 434.041 45.1202C434.865 44.805 435.402 44.3326 435.679 43.2827L436.065 44.2908L437.481 43.749L434.545 36.0773L433.002 36.6679V36.6679ZM433.604 43.4236C432.529 43.8348 431.25 43.1021 430.747 41.7868C430.244 40.4717 430.707 39.0722 431.782 38.661C432.857 38.2498 434.136 38.9824 434.639 40.2975C435.142 41.6128 434.679 43.0123 433.604 43.4236Z" fill="#90937E"/>
<path d="M291.778 55.2643C291.778 55.2643 274.778 43.2643 274.778 39.7643C274.778 36.2643 306.778 10.7643 306.778 10.7643C306.778 10.7643 313.778 7.76431 315.778 9.26431C317.778 10.7643 321.278 20.2643 321.278 23.7643C321.278 27.2643 319.778 28.7643 318.278 30.7643C316.778 32.7643 310.778 39.2643 310.778 39.2643C310.778 39.2643 307.778 42.2643 307.778 44.7643C307.778 47.2643 309.278 50.2643 310.278 52.7643C311.278 55.2643 321.278 60.2643 321.278 62.2643C321.278 64.2643 319.278 64.7643 319.278 64.7643C319.278 64.7643 312.278 64.2643 309.278 63.2643C306.278 62.2643 291.778 55.2643 291.778 55.2643Z" fill="#070D09"/>
</svg>
